<?xml version="1.0" encoding="utf-8"?>
<!-- Generator: Adobe Illustrator 25.0.1, SVG Export Plug-In . SVG Version: 6.00 Build 0)  -->
<svg version="1.1" xmlns="http://www.w3.org/2000/svg" xmlns:xlink="http://www.w3.org/1999/xlink" x="0px" y="0px"
	 viewBox="0 0 512 512" style="enable-background:new 0 0 512 512;" xml:space="preserve">
<style type="text/css">
	.st0{display:none;}
	.st1{display:inline;fill:#AABFAF;}
	.st2{fill:#26221A;}
</style>
<g id="Layer_1" class="st0">
	<circle class="st1" cx="256.38" cy="257.18" r="248.84"/>
</g>
<g id="Layer_2">
	<g>
		<path class="st2" d="M133.48,388.54c16.2-24.8,32.41-49.59,48.93-74.87c-7.33-0.39-14.17-0.75-21.53-1.14
			c2.98-6.77,5.8-13.19,8.76-19.92c-6.78-2.31-13.37-4.55-20.28-6.9c4.26-5.11,8.32-9.98,12.75-15.28
			c-19.5-2.4-38.5-4.75-57.51-7.08c-18.97-2.33-37.94-4.65-56.91-6.98c-0.01-0.2-0.02-0.4-0.04-0.6
			c37.41-4.32,74.83-8.64,112.84-13.02c-3.94-4.88-7.61-9.4-11.49-14.2c6.65-2.77,12.93-5.38,19.57-8.15
			c-3.02-6.23-5.99-12.34-9.15-18.86c6.57-0.8,12.83-1.56,19.57-2.37c-14.75-20.15-29.2-39.9-43.66-59.65
			c0.14-0.15,0.28-0.3,0.42-0.45c20.71,14.33,41.42,28.67,62.67,43.38c0.38-7.35,0.74-14.19,1.12-21.55
			c6.73,2.96,13.15,5.79,19.92,8.77c2.27-6.68,4.5-13.26,6.88-20.3c5.1,4.25,9.94,8.29,15.28,12.75
			c4.74-38.58,9.41-76.6,14.09-114.63c0.19,0,0.37,0.01,0.56,0.01c4.32,37.48,8.64,74.96,13.03,112.98
			c4.89-3.94,9.39-7.55,14.22-11.44c2.72,6.56,5.35,12.9,8.12,19.57c6.29-3.05,12.4-6.02,18.86-9.15c1.18,7.35,2.3,14.37,3.49,21.83
			c19.07-12.58,37.8-24.92,56.52-37.27c0.13,0.14,0.25,0.28,0.38,0.42c-12.71,17.84-25.42,35.67-38.5,54.02
			c6.44,0.39,12.39,0.75,18.74,1.14c-3,6.82-5.83,13.25-8.76,19.93c6.77,2.3,13.3,4.51,20.27,6.88c-4.25,5.12-8.32,10.01-12.72,15.3
			c38.49,4.73,76.46,9.4,114.42,14.06c0,0.2,0.01,0.4,0.01,0.59c-37.43,4.32-74.85,8.64-112.83,13.02
			c3.94,4.88,7.57,9.37,11.49,14.21c-6.62,2.75-12.96,5.39-19.58,8.14c3.05,6.28,6.01,12.39,9.16,18.87
			c-7.73,1.36-15.12,2.66-22.95,4.04c12.68,21.17,25.17,42.02,37.66,62.87c-0.16,0.14-0.33,0.28-0.49,0.42
			c-17.22-14.27-34.43-28.54-52.1-43.19c-0.77,5.68-1.48,10.9-2.25,16.51c-6.74-2.97-13.18-5.81-19.92-8.77
			c-2.28,6.72-4.51,13.3-6.88,20.31c-5.14-4.29-9.98-8.34-15.28-12.76c-4.74,38.55-9.4,76.53-14.07,114.52
			c-0.19,0.01-0.39,0.02-0.58,0.02c-4.32-37.47-8.64-74.93-13.02-112.92c-4.92,3.98-9.41,7.62-14.21,11.5
			c-2.74-6.61-5.37-12.96-8.13-19.59c-6.34,3.08-12.45,6.04-18.86,9.15c-0.99-5.49-1.92-10.63-2.93-16.22
			c-21.8,17.69-43.22,35.08-64.64,52.47C133.79,388.79,133.64,388.66,133.48,388.54z M341.43,255.99
			c-0.04-47.27-38.3-85.47-85.55-85.42c-47.12,0.05-85.27,38.26-85.31,85.43c-0.03,47.26,38.2,85.54,85.43,85.54
			C303.24,341.54,341.47,303.25,341.43,255.99z"/>
		<path class="st2" d="M256.12,332.49c-42.24,0.08-76.43-34.09-76.49-76.44c-0.05-42.15,34.11-76.39,76.25-76.44
			c42.18-0.04,76.45,34.1,76.49,76.2C332.41,298.2,298.39,332.41,256.12,332.49z"/>
	</g>
	<g>
	</g>
	<g>
	</g>
	<g>
	</g>
	<g>
	</g>
	<g>
	</g>
	<g>
	</g>
</g>
</svg>
